<svg width="16" height="16" viewBox="0 0 16 16" fill="none" xmlns="http://www.w3.org/2000/svg">
<path d="M7.99967 14L7.03301 13.1334C5.91079 12.1222 4.98301 11.25 4.24967 10.5167C3.51634 9.78336 2.93301 9.12503 2.49967 8.54169C2.06634 7.95836 1.76356 7.42225 1.59134 6.93336C1.41912 6.44447 1.33301 5.94447 1.33301 5.43336C1.33301 4.38892 1.68301 3.51669 2.38301 2.81669C3.08301 2.11669 3.95523 1.76669 4.99967 1.76669C5.57745 1.76669 6.12745 1.88892 6.64967 2.13336C7.1719 2.3778 7.6219 2.72225 7.99967 3.16669C8.37745 2.72225 8.82745 2.3778 9.34968 2.13336C9.8719 1.88892 10.4219 1.76669 10.9997 1.76669C12.0441 1.76669 12.9163 2.11669 13.6163 2.81669C14.3163 3.51669 14.6663 4.38892 14.6663 5.43336C14.6663 5.94447 14.5802 6.44447 14.408 6.93336C14.2358 7.42225 13.933 7.95836 13.4997 8.54169C13.0663 9.12503 12.483 9.78336 11.7497 10.5167C11.0163 11.25 10.0886 12.1222 8.96634 13.1334L7.99967 14Z" fill="#FF383C"/>
</svg>
