<svg xmlns="http://www.w3.org/2000/svg" viewBox="0 0 1040 160" role="img"><title>설문 참여 → 전공 추천 → 체험 수업 → 전공 선택 → 학습 시작</title><rect width="1040" height="160" rx="16" fill="#ECFAF5"/><g transform="translate(87.0 38)" fill="none" stroke="#087864" stroke-width="2.1" stroke-linecap="round" stroke-linejoin="round"><path d="M8 3h11l6 6v23H8z M19 3v7h6 M12 16h9 M12 21h9 M12 26h6"/></g><text x="104.0" y="120" text-anchor="middle" fill="#17211E" font-family="'Apple SD Gothic Neo','Noto Sans KR','Malgun Gothic',sans-serif" font-size="21" font-weight="700">설문 참여</text><path d="M184.0 57h48m-8-7 8 7-8 7" fill="none" stroke="#4CCAB2" stroke-width="1.7"/><g transform="translate(295.0 38)" fill="none" stroke="#087864" stroke-width="2.1" stroke-linecap="round" stroke-linejoin="round"><path d="M12 26h10 M13 30h8 M15 33h4 M11 23C-1 9 11-2 22 5c9 6 3 15 0 18"/></g><text x="312.0" y="120" text-anchor="middle" fill="#17211E" font-family="'Apple SD Gothic Neo','Noto Sans KR','Malgun Gothic',sans-serif" font-size="21" font-weight="700">전공 추천</text><path d="M392.0 57h48m-8-7 8 7-8 7" fill="none" stroke="#4CCAB2" stroke-width="1.7"/><g transform="translate(503.0 38)" fill="none" stroke="#087864" stroke-width="2.1" stroke-linecap="round" stroke-linejoin="round"><path d="M6 5h23v21H6z M2 27h31v4H2z"/></g><text x="520.0" y="120" text-anchor="middle" fill="#17211E" font-family="'Apple SD Gothic Neo','Noto Sans KR','Malgun Gothic',sans-serif" font-size="21" font-weight="700">체험 수업</text><path d="M600.0 57h48m-8-7 8 7-8 7" fill="none" stroke="#4CCAB2" stroke-width="1.7"/><g transform="translate(711.0 38)" fill="none" stroke="#087864" stroke-width="2.1" stroke-linecap="round" stroke-linejoin="round"><path d="m2 13 15-8 15 8-15 8z M7 16v10q10 8 20 0V16 M32 13v14"/></g><text x="728.0" y="120" text-anchor="middle" fill="#17211E" font-family="'Apple SD Gothic Neo','Noto Sans KR','Malgun Gothic',sans-serif" font-size="21" font-weight="700">전공 선택</text><path d="M808.0 57h48m-8-7 8 7-8 7" fill="none" stroke="#4CCAB2" stroke-width="1.7"/><g transform="translate(919.0 38)" fill="none" stroke="#087864" stroke-width="2.1" stroke-linecap="round" stroke-linejoin="round"><rect x="3" y="21" width="7" height="11" rx="1"/><rect x="14" y="13" width="7" height="19" rx="1"/><rect x="25" y="4" width="7" height="28" rx="1"/></g><text x="936.0" y="120" text-anchor="middle" fill="#17211E" font-family="'Apple SD Gothic Neo','Noto Sans KR','Malgun Gothic',sans-serif" font-size="21" font-weight="700">학습 시작</text></svg>